<svg width="10" height="13" viewBox="0 0 10 13" fill="none" xmlns="http://www.w3.org/2000/svg">
<path fill-rule="evenodd" clip-rule="evenodd" d="M0.5 0V3.5L1 4H4.5V3H1.979L2.92 2.059C3.24853 1.72338 3.64035 1.45624 4.07279 1.27305C4.50524 1.08985 4.96972 0.994231 5.43936 0.991723C5.909 0.989214 6.37447 1.07987 6.80885 1.25843C7.24323 1.437 7.63788 1.69994 7.96997 2.03203C8.30206 2.36412 8.565 2.75877 8.74357 3.19315C8.92213 3.62753 9.01279 4.093 9.01028 4.56264C9.00777 5.03228 8.91215 5.49677 8.72895 5.92921C8.54576 6.36165 8.27862 6.75347 7.943 7.082L2.746 12.28L3.466 13L8.664 7.802C9.52105 6.94482 10.0025 5.78229 10.0024 4.57015C10.0023 3.35801 9.52068 2.19555 8.6635 1.3385C7.80632 0.481453 6.64379 2.16354e-05 5.43165 0.000115395C4.2195 0.000209154 3.05705 0.48182 2.2 1.339L1.5 2.039V0H0.5Z" fill="#E34F27"/>
</svg>
